<svg width="8" height="12" viewBox="0 0 8 12" fill="none" xmlns="http://www.w3.org/2000/svg">
<path fill-rule="evenodd" clip-rule="evenodd" d="M0.125893 7.83919C0.165698 7.79929 0.212986 7.76763 0.265046 7.74602C0.317107 7.72442 0.372918 7.7133 0.429283 7.7133C0.485648 7.7133 0.541459 7.72442 0.593519 7.74602C0.64558 7.76763 0.692867 7.79929 0.732673 7.83919L3.85742 10.9648L6.98216 7.83919C7.06262 7.75873 7.17176 7.71353 7.28555 7.71353C7.39934 7.71353 7.50848 7.75873 7.58894 7.83919C7.6694 7.91966 7.71461 8.02879 7.71461 8.14258C7.71461 8.25638 7.6694 8.36551 7.58894 8.44597L4.16081 11.8741C4.121 11.914 4.07371 11.9457 4.02165 11.9673C3.96959 11.9889 3.91378 12 3.85742 12C3.80105 12 3.74524 11.9889 3.69318 11.9673C3.64112 11.9457 3.59383 11.914 3.55403 11.8741L0.125893 8.44597C0.0859866 8.40617 0.0543254 8.35888 0.0327227 8.30682C0.0111199 8.25476 0 8.19895 0 8.14258C0 8.08622 0.0111199 8.03041 0.0327227 7.97835C0.0543254 7.92629 0.0859866 7.879 0.125893 7.83919ZM0.125893 4.16081C0.165698 4.20071 0.212986 4.23237 0.265046 4.25398C0.317107 4.27558 0.372918 4.2867 0.429283 4.2867C0.485648 4.2867 0.541459 4.27558 0.593519 4.25398C0.64558 4.23237 0.692867 4.20071 0.732673 4.16081L3.85742 1.03521L6.98216 4.16081C7.06262 4.24127 7.17176 4.28647 7.28555 4.28647C7.39934 4.28647 7.50848 4.24127 7.58894 4.16081C7.6694 4.08034 7.71461 3.97121 7.71461 3.85742C7.71461 3.74362 7.6694 3.63449 7.58894 3.55403L4.16081 0.125893C4.121 0.0859866 4.07371 0.0543254 4.02165 0.0327226C3.96959 0.0111198 3.91378 0 3.85742 0C3.80105 0 3.74524 0.0111198 3.69318 0.0327226C3.64112 0.0543254 3.59383 0.0859866 3.55403 0.125893L0.125893 3.55403C0.0859866 3.59383 0.0543254 3.64112 0.0327227 3.69318C0.0111199 3.74524 0 3.80105 0 3.85742C0 3.91378 0.0111199 3.96959 0.0327227 4.02165C0.0543254 4.07371 0.0859866 4.121 0.125893 4.16081Z" fill="#219AF3"/>
</svg>
