<?xml version="1.0" encoding="utf-8"?>
<!-- Generator: Adobe Illustrator 22.1.0, SVG Export Plug-In . SVG Version: 6.00 Build 0)  -->
<svg version="1.1" id="Layer_1" xmlns="http://www.w3.org/2000/svg" xmlns:xlink="http://www.w3.org/1999/xlink" x="0px" y="0px"
	 viewBox="0 0 16 16" style="enable-background:new 0 0 16 16;" xml:space="preserve">
<style type="text/css">
	.st0{fill:#FFFFFF;fill-opacity:0;}
	.st1{filter:url(#Adobe_OpacityMaskFilter);}
	.st2{fill:#FFFFFF;}
	.st3{mask:url(#mask-2_1_);}
	.st4{fill:#7F8FA4;}
</style>
<title>Icons/16px/How it works 2</title>
<desc>Created with Sketch.</desc>
<g id="_x32_.-Search-_x2705_">
	<g id="Search---Lot-Page" transform="translate(-1083.000000, -822.000000)">
		<g id="Bid-Details" transform="translate(907.000000, 307.000000)">
			<g id="Final-Price-Calculator" transform="translate(0.000000, 180.000000)">
				<g id="Section" transform="translate(0.000000, 324.000000)">
					<g id="Icons_x2F_16px_x2F_How-it-works-2" transform="translate(20.000000, 8.000000)">
						<g transform="translate(156.000000, 3.000000)">
							<g id="Icons_x2F_16px_x2F_How-it-works">
								<g id="How-it-Works">
									<path id="path-1_1_" class="st0" d="M13.7,13.7c-3.1,3.1-8.2,3.1-11.3,0c-3.1-3.1-3.1-8.2,0-11.3c3.1-3.1,8.2-3.1,11.3,0
										C16.8,5.5,16.8,10.5,13.7,13.7z M3.3,3.3c-2.6,2.6-2.6,6.8,0,9.4c2.6,2.6,6.8,2.6,9.4,0c2.6-2.6,2.6-6.8,0-9.4
										C10.1,0.7,5.9,0.7,3.3,3.3z M8.3,9.9C8,10.1,7.6,10,7.4,9.6c-0.2-0.3,0-0.7,0.3-0.9L9.3,8C9.7,7.7,10,7.3,10,6.8V6.7
										c0-0.7-0.6-1.3-1.3-1.3H8c-0.7,0-1.3,0.6-1.3,1.3C6.7,7,6.4,7.3,6,7.3C5.6,7.3,5.3,7,5.3,6.7C5.3,5.2,6.5,4,8,4h0.7
										c1.5,0,2.7,1.2,2.7,2.7v0.1c0,1-0.6,1.9-1.5,2.4L8.3,9.9z M8.7,12c0,0.4-0.3,0.7-0.7,0.7S7.3,12.4,7.3,12v0
										c0-0.4,0.3-0.7,0.7-0.7S8.7,11.6,8.7,12L8.7,12z"/>
								</g>
								<defs>
									<filter id="Adobe_OpacityMaskFilter" filterUnits="userSpaceOnUse" x="0" y="0" width="16" height="16">
										<feColorMatrix  type="matrix" values="1 0 0 0 0  0 1 0 0 0  0 0 1 0 0  0 0 0 1 0"/>
									</filter>
								</defs>
								<mask maskUnits="userSpaceOnUse" x="0" y="0" width="16" height="16" id="mask-2_1_">
									<g class="st1">
										<path id="path-1_2_" class="st2" d="M13.7,13.7c-3.1,3.1-8.2,3.1-11.3,0c-3.1-3.1-3.1-8.2,0-11.3c3.1-3.1,8.2-3.1,11.3,0
											C16.8,5.5,16.8,10.5,13.7,13.7z M3.3,3.3c-2.6,2.6-2.6,6.8,0,9.4c2.6,2.6,6.8,2.6,9.4,0c2.6-2.6,2.6-6.8,0-9.4
											C10.1,0.7,5.9,0.7,3.3,3.3z M8.3,9.9C8,10.1,7.6,10,7.4,9.6c-0.2-0.3,0-0.7,0.3-0.9L9.3,8C9.7,7.7,10,7.3,10,6.8V6.7
											c0-0.7-0.6-1.3-1.3-1.3H8c-0.7,0-1.3,0.6-1.3,1.3C6.7,7,6.4,7.3,6,7.3C5.6,7.3,5.3,7,5.3,6.7C5.3,5.2,6.5,4,8,4h0.7
											c1.5,0,2.7,1.2,2.7,2.7v0.1c0,1-0.6,1.9-1.5,2.4L8.3,9.9z M8.7,12c0,0.4-0.3,0.7-0.7,0.7S7.3,12.4,7.3,12v0
											c0-0.4,0.3-0.7,0.7-0.7S8.7,11.6,8.7,12L8.7,12z"/>
									</g>
								</mask>
								<g id="_xD83C__xDFA8_Atoms_x2F_Colour_x2F_Dark-Grey_x2F_100_x25_" class="st3">
									<rect id="Rectangle" y="0" class="st4" width="16" height="16"/>
								</g>
							</g>
						</g>
					</g>
				</g>
			</g>
		</g>
	</g>
</g>
</svg>
