<?xml version="1.0" encoding="utf-8"?>
<!-- Generator: Adobe Illustrator 22.1.0, SVG Export Plug-In . SVG Version: 6.00 Build 0)  -->
<svg version="1.1" id="Layer_1" xmlns="http://www.w3.org/2000/svg" xmlns:xlink="http://www.w3.org/1999/xlink" x="0px" y="0px"
	 viewBox="0 0 16 14" style="enable-background:new 0 0 16 14;" xml:space="preserve">
<style type="text/css">
	.st0{fill:#FFFFFF;fill-opacity:0;}
	.st1{filter:url(#Adobe_OpacityMaskFilter);}
	.st2{fill:#FFFFFF;}
	.st3{mask:url(#mask-2_1_);}
	.st4{fill:#7F8FA4;}
</style>
<title>Icons/16px/Account 2</title>
<desc>Created with Sketch.</desc>
<g id="_x37_.-Edit-Profile">
	<g id="Personal-Information" transform="translate(-185.000000, -346.000000)">
		<g id="Edit-Profile" transform="translate(165.000000, 163.000000)">
			<g id="Button" transform="translate(0.000000, 173.000000)">
				<g id="Group-6" transform="translate(20.000000, 7.000000)">
					<g id="Icons_x2F_16px_x2F_Account-2" transform="translate(0.000000, 2.000000)">
						<g id="Icons_x2F_16px_x2F_Membership">
							<g id="Membership">
								<path id="path-1_1_" class="st0" d="M1.5,5.5L8,13.1l6.5-7.6l-2.1-2.7H3.7L1.5,5.5z M0.1,5.1l2.7-3.3
									c0.1-0.2,0.3-0.3,0.5-0.3h9.3c0.2,0,0.4,0.1,0.5,0.3l2.7,3.3c0.2,0.2,0.2,0.6,0,0.8l-7.3,8.7c-0.3,0.3-0.8,0.3-1,0L0.2,5.9
									C0,5.7-0.1,5.3,0.1,5.1z M0.7,6.2C0.3,6.2,0,5.9,0,5.5s0.3-0.7,0.7-0.7h14.7c0.4,0,0.7,0.3,0.7,0.7s-0.3,0.7-0.7,0.7H0.7z"
									/>
							</g>
							<defs>
								<filter id="Adobe_OpacityMaskFilter" filterUnits="userSpaceOnUse" x="0" y="0" width="16" height="16">
									<feColorMatrix  type="matrix" values="1 0 0 0 0  0 1 0 0 0  0 0 1 0 0  0 0 0 1 0"/>
								</filter>
							</defs>
							<mask maskUnits="userSpaceOnUse" x="0" y="0" width="16" height="16" id="mask-2_1_">
								<g class="st1">
									<path id="path-1_2_" class="st2" d="M1.5,5.5L8,13.1l6.5-7.6l-2.1-2.7H3.7L1.5,5.5z M0.1,5.1l2.7-3.3
										c0.1-0.2,0.3-0.3,0.5-0.3h9.3c0.2,0,0.4,0.1,0.5,0.3l2.7,3.3c0.2,0.2,0.2,0.6,0,0.8l-7.3,8.7c-0.3,0.3-0.8,0.3-1,0L0.2,5.9
										C0,5.7-0.1,5.3,0.1,5.1z M0.7,6.2C0.3,6.2,0,5.9,0,5.5s0.3-0.7,0.7-0.7h14.7c0.4,0,0.7,0.3,0.7,0.7s-0.3,0.7-0.7,0.7H0.7z"
										/>
								</g>
							</mask>
							<g id="_xD83C__xDFA8_Atoms_x2F_Colour_x2F_Dark-Grey_x2F_100_x25_" class="st3">
								<rect id="Rectangle" y="0" class="st4" width="16" height="16"/>
							</g>
						</g>
					</g>
				</g>
			</g>
		</g>
	</g>
</g>
</svg>
