<?xml version="1.0" encoding="utf-8"?>
<!-- Generator: Adobe Illustrator 22.1.0, SVG Export Plug-In . SVG Version: 6.00 Build 0)  -->
<svg version="1.1" id="Layer_1" xmlns="http://www.w3.org/2000/svg" xmlns:xlink="http://www.w3.org/1999/xlink" x="0px" y="0px"
	 viewBox="0 0 14 16" style="enable-background:new 0 0 14 16;" xml:space="preserve">
<style type="text/css">
	.st0{fill:#FFFFFF;fill-opacity:0;}
	.st1{filter:url(#Adobe_OpacityMaskFilter);}
	.st2{fill:#FFFFFF;}
	.st3{mask:url(#mask-2_1_);}
	.st4{fill:#7F8FA4;}
</style>
<title>search 2</title>
<desc>Created with Sketch.</desc>
<g id="_x37_.-Edit-Profile">
	<g id="Personal-Information" transform="translate(-186.000000, -295.000000)">
		<g id="Edit-Profile" transform="translate(165.000000, 163.000000)">
			<g id="Button" transform="translate(0.000000, 124.000000)">
				<g id="Group-5" transform="translate(20.000000, 6.000000)">
					<g id="search-2" transform="translate(0.000000, 2.000000)">
						<g id="search">
							<g id="Icons_x2F_16px_x2F_Login-Password">
								<g id="Login-Password">
									<path id="path-1_1_" class="st0" d="M12.6,14.3c0.4,0,0.6-0.3,0.6-0.7V7.1c0-0.4-0.3-0.7-0.6-0.7H3.5
										c-0.4,0-0.7,0.3-0.7,0.7v6.5c0,0.4,0.3,0.7,0.7,0.7H12.6z M4.1,5.2V3.9C4.1,1.7,5.8,0,8,0s3.9,1.7,3.9,3.9v1.3h0.7
										c1.1,0,1.9,0.9,1.9,2v6.5c0,1.1-0.9,2-1.9,2H3.5c-1.1,0-2-0.9-2-2V7.1c0-1.1,0.9-2,2-2H4.1z M5.4,5.2h5.2V3.9
										c0-1.4-1.2-2.6-2.6-2.6S5.4,2.5,5.4,3.9V5.2z M9.8,8.6c1,1,1,2.7,0,3.7s-2.7,1-3.7,0s-1-2.7,0-3.7S8.8,7.5,9.8,8.6z
										 M8.9,9.5C8.4,9,7.6,9,7.1,9.5c-0.5,0.5-0.5,1.3,0,1.8c0.5,0.5,1.3,0.5,1.8,0C9.4,10.8,9.4,10,8.9,9.5z"/>
								</g>
								<defs>
									<filter id="Adobe_OpacityMaskFilter" filterUnits="userSpaceOnUse" x="0" y="0" width="16" height="16">
										<feColorMatrix  type="matrix" values="1 0 0 0 0  0 1 0 0 0  0 0 1 0 0  0 0 0 1 0"/>
									</filter>
								</defs>
								<mask maskUnits="userSpaceOnUse" x="0" y="0" width="16" height="16" id="mask-2_1_">
									<g class="st1">
										<path id="path-1_2_" class="st2" d="M12.6,14.3c0.4,0,0.6-0.3,0.6-0.7V7.1c0-0.4-0.3-0.7-0.6-0.7H3.5
											c-0.4,0-0.7,0.3-0.7,0.7v6.5c0,0.4,0.3,0.7,0.7,0.7H12.6z M4.1,5.2V3.9C4.1,1.7,5.8,0,8,0s3.9,1.7,3.9,3.9v1.3h0.7
											c1.1,0,1.9,0.9,1.9,2v6.5c0,1.1-0.9,2-1.9,2H3.5c-1.1,0-2-0.9-2-2V7.1c0-1.1,0.9-2,2-2H4.1z M5.4,5.2h5.2V3.9
											c0-1.4-1.2-2.6-2.6-2.6S5.4,2.5,5.4,3.9V5.2z M9.8,8.6c1,1,1,2.7,0,3.7s-2.7,1-3.7,0s-1-2.7,0-3.7S8.8,7.5,9.8,8.6z
											 M8.9,9.5C8.4,9,7.6,9,7.1,9.5c-0.5,0.5-0.5,1.3,0,1.8c0.5,0.5,1.3,0.5,1.8,0C9.4,10.8,9.4,10,8.9,9.5z"/>
									</g>
								</mask>
								<g id="_xD83C__xDFA8_Atoms_x2F_Colour_x2F_Dark-Grey_x2F_100_x25_" class="st3">
									<rect id="Rectangle" y="0" class="st4" width="16" height="16"/>
								</g>
							</g>
						</g>
					</g>
				</g>
			</g>
		</g>
	</g>
</g>
</svg>
