<?xml version="1.0" encoding="utf-8"?>
<!-- Generator: Adobe Illustrator 22.1.0, SVG Export Plug-In . SVG Version: 6.00 Build 0)  -->
<svg version="1.1" id="Layer_1" xmlns="http://www.w3.org/2000/svg" xmlns:xlink="http://www.w3.org/1999/xlink" x="0px" y="0px"
	 viewBox="0 0 16 14" style="enable-background:new 0 0 16 14;" xml:space="preserve">
<style type="text/css">
	.st0{fill:#FFFFFF;fill-opacity:0;}
	.st1{filter:url(#Adobe_OpacityMaskFilter);}
	.st2{fill:#FFFFFF;}
	.st3{mask:url(#mask-2_1_);}
	.st4{fill:#7F8FA4;}
</style>
<title>Icons/16px/Shipping-2 2</title>
<desc>Created with Sketch.</desc>
<g id="_x35_.-Shipping-_x2705_">
	<g id="Shipping" transform="translate(-205.000000, -848.000000)">
		<g id="Guaranteed-Quote" transform="translate(165.000000, 646.000000)">
			<g id="Invoice" transform="translate(20.000000, 135.000000)">
				<g id="Section" transform="translate(0.000000, 56.000000)">
					<g id="Group-4" transform="translate(20.000000, 7.000000)">
						<g id="Icons_x2F_16px_x2F_Shipping-2-2" transform="translate(0.000000, 3.000000)">
							<g id="Icons_x2F_16px_x2F_Shipping-2">
								<g id="Shipping-2">
									<path id="path-1_1_" class="st0" d="M10.7,6.8H15c0.4,0,0.7,0.3,0.7,0.7S15.4,8.2,15,8.2h-5c-0.4,0-0.7-0.3-0.7-0.7V4.8
										c0-0.4,0.3-0.7,0.7-0.7s0.7,0.3,0.7,0.7V6.8z M10.7,3.5h0.7c1,0,2,0.5,2.6,1.3l1.6,2C15.8,7.1,16,7.5,16,8v4.2
										c0,0.4-0.3,0.7-0.7,0.7H14c-0.4,0-0.7-0.3-0.7-0.7s0.3-0.7,0.7-0.7h0.7V8c0-0.2-0.1-0.3-0.1-0.4l-1.6-2
										c-0.4-0.5-1-0.8-1.6-0.8H10c-0.4,0-0.7-0.3-0.7-0.7V3.5c0-0.4-0.3-0.7-0.7-0.7H2c-0.4,0-0.7,0.3-0.7,0.7v8h1.3
										c0.4,0,0.7,0.3,0.7,0.7S3,12.8,2.7,12.8h-2c-0.4,0-0.7-0.3-0.7-0.7V3.5c0-1.1,0.9-2,2-2h6.7C9.8,1.5,10.7,2.4,10.7,3.5z
										 M6.6,14.1c-1,1-2.7,1-3.8,0s-1-2.7,0-3.8s2.7-1,3.8,0S7.6,13,6.6,14.1z M3.7,11.2c-0.5,0.5-0.5,1.4,0,1.9
										c0.5,0.5,1.4,0.5,1.9,0c0.5-0.5,0.5-1.4,0-1.9C5.1,10.7,4.2,10.7,3.7,11.2z M13.2,10.3c1,1,1,2.7,0,3.8s-2.7,1-3.8,0
										s-1-2.7,0-3.8S12.2,9.2,13.2,10.3z M12.3,11.2c-0.5-0.5-1.4-0.5-1.9,0c-0.5,0.5-0.5,1.4,0,1.9c0.5,0.5,1.4,0.5,1.9,0
										C12.8,12.6,12.8,11.7,12.3,11.2z"/>
								</g>
								<defs>
									<filter id="Adobe_OpacityMaskFilter" filterUnits="userSpaceOnUse" x="0" y="0" width="16" height="16">
										<feColorMatrix  type="matrix" values="1 0 0 0 0  0 1 0 0 0  0 0 1 0 0  0 0 0 1 0"/>
									</filter>
								</defs>
								<mask maskUnits="userSpaceOnUse" x="0" y="0" width="16" height="16" id="mask-2_1_">
									<g class="st1">
										<path id="path-1_2_" class="st2" d="M10.7,6.8H15c0.4,0,0.7,0.3,0.7,0.7S15.4,8.2,15,8.2h-5c-0.4,0-0.7-0.3-0.7-0.7V4.8
											c0-0.4,0.3-0.7,0.7-0.7s0.7,0.3,0.7,0.7V6.8z M10.7,3.5h0.7c1,0,2,0.5,2.6,1.3l1.6,2C15.8,7.1,16,7.5,16,8v4.2
											c0,0.4-0.3,0.7-0.7,0.7H14c-0.4,0-0.7-0.3-0.7-0.7s0.3-0.7,0.7-0.7h0.7V8c0-0.2-0.1-0.3-0.1-0.4l-1.6-2
											c-0.4-0.5-1-0.8-1.6-0.8H10c-0.4,0-0.7-0.3-0.7-0.7V3.5c0-0.4-0.3-0.7-0.7-0.7H2c-0.4,0-0.7,0.3-0.7,0.7v8h1.3
											c0.4,0,0.7,0.3,0.7,0.7S3,12.8,2.7,12.8h-2c-0.4,0-0.7-0.3-0.7-0.7V3.5c0-1.1,0.9-2,2-2h6.7C9.8,1.5,10.7,2.4,10.7,3.5z
											 M6.6,14.1c-1,1-2.7,1-3.8,0s-1-2.7,0-3.8s2.7-1,3.8,0S7.6,13,6.6,14.1z M3.7,11.2c-0.5,0.5-0.5,1.4,0,1.9
											c0.5,0.5,1.4,0.5,1.9,0c0.5-0.5,0.5-1.4,0-1.9C5.1,10.7,4.2,10.7,3.7,11.2z M13.2,10.3c1,1,1,2.7,0,3.8s-2.7,1-3.8,0
											s-1-2.7,0-3.8S12.2,9.2,13.2,10.3z M12.3,11.2c-0.5-0.5-1.4-0.5-1.9,0c-0.5,0.5-0.5,1.4,0,1.9c0.5,0.5,1.4,0.5,1.9,0
											C12.8,12.6,12.8,11.7,12.3,11.2z"/>
									</g>
								</mask>
								<g id="_xD83C__xDFA8_Atoms_x2F_Colour_x2F_Dark-Grey_x2F_100_x25_" class="st3">
									<rect id="Rectangle" y="0" class="st4" width="16" height="16"/>
								</g>
							</g>
						</g>
					</g>
				</g>
			</g>
		</g>
	</g>
</g>
</svg>
