<?xml version="1.0" encoding="utf-8"?>
<!-- Generator: Adobe Illustrator 22.1.0, SVG Export Plug-In . SVG Version: 6.00 Build 0)  -->
<svg version="1.1" id="Layer_1" xmlns="http://www.w3.org/2000/svg" xmlns:xlink="http://www.w3.org/1999/xlink" x="0px" y="0px"
	 viewBox="0 0 16 16" style="enable-background:new 0 0 16 16;" xml:space="preserve">
<style type="text/css">
	.st0{fill:#FFFFFF;fill-opacity:0;}
	.st1{filter:url(#Adobe_OpacityMaskFilter);}
	.st2{fill:#FFFFFF;}
	.st3{mask:url(#mask-2_1_);}
	.st4{fill:#7F8FA4;}
</style>
<title>Icons/16px/Arrow Up Copy 6</title>
<desc>Created with Sketch.</desc>
<g id="_x32_.-Search-_x2705_">
	<g id="Search" transform="translate(-855.000000, -613.000000)">
		<g id="BidCars-Search" transform="translate(165.000000, 163.000000)">
			<g transform="translate(190.000000, 182.000000)">
				<g id="Types" transform="translate(201.000000, 255.000000)">
					<g id="Type" transform="translate(287.000000, 0.000000)">
						<g id="Icons_x2F_16px_x2F_Arrow-Up-Copy-6" transform="translate(12.000000, 13.000000)">
							<g id="Icons_x2F_16px_x2F_Condition-Details">
								<g id="Condition-Details">
									<path id="path-1_1_" class="st0" d="M1.3,15.3C1.3,15.7,1,16,0.7,16S0,15.7,0,15.3V7.7c0-0.3,0.1-0.7,0.2-1l1.6-3
										c0.4-0.6,1-1,1.8-1h1C5,2.7,5.3,3,5.3,3.3S5,4,4.7,4h-1C3.4,4,3.2,4.1,3.1,4.3l-1.6,3C1.4,7.5,1.3,7.6,1.3,7.7V15.3z
										 M6.7,12c0.4,0,0.7,0.3,0.7,0.7S7,13.3,6.7,13.3h-6C0.3,13.3,0,13,0,12.7S0.3,12,0.7,12H6.7z M1.4,8C1,8,0.7,7.7,0.7,7.3
										S1,6.7,1.4,6.7h3.9C5.7,6.7,6,7,6,7.3S5.7,8,5.3,8H1.4z M10.7,12.7c0-0.4,0.3-0.7,0.7-0.7s0.7,0.3,0.7,0.7v0
										c0,0.4-0.3,0.7-0.7,0.7S10.7,13,10.7,12.7L10.7,12.7z M2.7,10c0-0.4,0.3-0.7,0.7-0.7S4,9.6,4,10v0c0,0.4-0.3,0.7-0.7,0.7
										S2.7,10.4,2.7,10L2.7,10z M12,3.4V0.7c0-0.5,0.5-0.8,0.9-0.6C14.7,0.7,16,2.4,16,4.4c0,1.5-0.8,3-2,3.8v5.1
										c0,1.5-1.2,2.7-2.7,2.7s-2.7-1.2-2.7-2.7V8.3c-1.4-1-2.2-2.7-1.9-4.6C7,2,8.2,0.6,9.8,0c0.4-0.2,0.9,0.2,0.9,0.6v2.7
										l0.7,0.3L12,3.4z M13.3,3.8c0,0.3-0.1,0.5-0.4,0.6L11.6,5c-0.2,0.1-0.4,0.1-0.6,0L9.7,4.4C9.5,4.3,9.3,4,9.3,3.8v-2
										C8.7,2.3,8.2,3.1,8,3.9C7.8,5.3,8.5,6.6,9.7,7.3C9.9,7.4,10,7.7,10,7.9v5.4c0,0.7,0.6,1.3,1.3,1.3s1.3-0.6,1.3-1.3V7.9
										c0-0.2,0.1-0.5,0.3-0.6c1-0.6,1.7-1.7,1.7-2.9c0-1.1-0.5-2-1.3-2.7V3.8z"/>
								</g>
								<defs>
									<filter id="Adobe_OpacityMaskFilter" filterUnits="userSpaceOnUse" x="0" y="0" width="16" height="16">
										<feColorMatrix  type="matrix" values="1 0 0 0 0  0 1 0 0 0  0 0 1 0 0  0 0 0 1 0"/>
									</filter>
								</defs>
								<mask maskUnits="userSpaceOnUse" x="0" y="0" width="16" height="16" id="mask-2_1_">
									<g class="st1">
										<path id="path-1_2_" class="st2" d="M1.3,15.3C1.3,15.7,1,16,0.7,16S0,15.7,0,15.3V7.7c0-0.3,0.1-0.7,0.2-1l1.6-3
											c0.4-0.6,1-1,1.8-1h1C5,2.7,5.3,3,5.3,3.3S5,4,4.7,4h-1C3.4,4,3.2,4.1,3.1,4.3l-1.6,3C1.4,7.5,1.3,7.6,1.3,7.7V15.3z
											 M6.7,12c0.4,0,0.7,0.3,0.7,0.7S7,13.3,6.7,13.3h-6C0.3,13.3,0,13,0,12.7S0.3,12,0.7,12H6.7z M1.4,8C1,8,0.7,7.7,0.7,7.3
											S1,6.7,1.4,6.7h3.9C5.7,6.7,6,7,6,7.3S5.7,8,5.3,8H1.4z M10.7,12.7c0-0.4,0.3-0.7,0.7-0.7s0.7,0.3,0.7,0.7v0
											c0,0.4-0.3,0.7-0.7,0.7S10.7,13,10.7,12.7L10.7,12.7z M2.7,10c0-0.4,0.3-0.7,0.7-0.7S4,9.6,4,10v0c0,0.4-0.3,0.7-0.7,0.7
											S2.7,10.4,2.7,10L2.7,10z M12,3.4V0.7c0-0.5,0.5-0.8,0.9-0.6C14.7,0.7,16,2.4,16,4.4c0,1.5-0.8,3-2,3.8v5.1
											c0,1.5-1.2,2.7-2.7,2.7s-2.7-1.2-2.7-2.7V8.3c-1.4-1-2.2-2.7-1.9-4.6C7,2,8.2,0.6,9.8,0c0.4-0.2,0.9,0.2,0.9,0.6v2.7
											l0.7,0.3L12,3.4z M13.3,3.8c0,0.3-0.1,0.5-0.4,0.6L11.6,5c-0.2,0.1-0.4,0.1-0.6,0L9.7,4.4C9.5,4.3,9.3,4,9.3,3.8v-2
											C8.7,2.3,8.2,3.1,8,3.9C7.8,5.3,8.5,6.6,9.7,7.3C9.9,7.4,10,7.7,10,7.9v5.4c0,0.7,0.6,1.3,1.3,1.3s1.3-0.6,1.3-1.3V7.9
											c0-0.2,0.1-0.5,0.3-0.6c1-0.6,1.7-1.7,1.7-2.9c0-1.1-0.5-2-1.3-2.7V3.8z"/>
									</g>
								</mask>
								<g id="_xD83C__xDFA8_Atoms_x2F_Colour_x2F_Dark-Grey_x2F_100_x25_" class="st3">
									<rect id="Rectangle" y="0" class="st4" width="16" height="16"/>
								</g>
							</g>
						</g>
					</g>
				</g>
			</g>
		</g>
	</g>
</g>
</svg>
