<?xml version="1.0" encoding="UTF-8"?>
<svg width="16px" height="16px" viewBox="0 0 16 16" version="1.1" xmlns="http://www.w3.org/2000/svg" xmlns:xlink="http://www.w3.org/1999/xlink">
    <!-- Generator: Sketch 52.3 (67297) - http://www.bohemiancoding.com/sketch -->
    <title>Icons/16px/Arrow Up Copy 4</title>
    <desc>Created with Sketch.</desc>
    <defs>
        <path d="M13.6568477,13.6568481 C10.5326453,16.7810506 5.46730331,16.7810506 2.34315181,13.6568481 C-0.781050603,10.5326455 -0.781050603,5.46730316 2.34315181,2.34315147 C5.46735422,-0.78105113 10.5326962,-0.78105113 13.6568516,2.34315531 C16.7810501,5.46735407 16.7810501,10.5326964 13.6568477,13.6568481 Z M3.28595869,3.28596609 C0.682461387,5.88942113 0.682461387,10.110536 3.28596637,12.7140411 C5.88942125,15.3175386 10.1105358,15.3175386 12.7140408,12.7140334 C15.3175381,10.1105784 15.3175381,5.88946355 12.714037,3.28596225 C10.1105783,0.682460948 5.88946368,0.682460948 3.28595869,3.28596609 Z M7.33329857,7.3333452 C7.33329857,6.96515468 7.63177594,6.6666773 7.99996643,6.6666773 C8.36815692,6.6666773 8.66663428,6.96515468 8.66663428,7.3333452 L8.66663428,12.0000205 C8.66663428,12.368211 8.36815692,12.6666884 7.99996643,12.6666884 C7.63177594,12.6666884 7.33329857,12.368211 7.33329857,12.0000205 L7.33329857,7.3333452 Z M8.66663428,4.66667361 C8.66663428,5.03486412 8.36815692,5.33334151 7.99996643,5.33334151 C7.63177594,5.33334151 7.33329857,5.03486412 7.33329857,4.66667361 L7.33329857,4.66000693 C7.33329857,4.29181642 7.63177594,3.99333903 7.99996643,3.99333903 C8.36815692,3.99333903 8.66663428,4.29181642 8.66663428,4.66000693 L8.66663428,4.66667361 Z" id="path-1"></path>
    </defs>
    <g id="2.-Search-✅" stroke="none" stroke-width="1" fill="none" fill-rule="evenodd">
        <g id="Search" transform="translate(-661.000000, -613.000000)">
            <g transform="translate(165.000000, 163.000000)" id="BidCars-Search">
                <g transform="translate(190.000000, 182.000000)">
                    <g id="Types" transform="translate(201.000000, 255.000000)">
                        <g id="Type" transform="translate(92.000000, 0.000000)">
                            <g id="Icons/16px/Arrow-Up-Copy-4" transform="translate(13.000000, 13.000000)">
                                <g id="Icons/16px/Info">
                                    <mask id="mask-2" fill="white">
                                        <use xlink:href="#path-1"></use>
                                    </mask>
                                    <use id="Info" fill-opacity="0" fill="#FFFFFF" fill-rule="nonzero" xlink:href="#path-1"></use>
                                    <g id="🎨Atoms/Colour/Dark-Grey/100%" mask="url(#mask-2)" fill="#7F8FA4" fill-rule="evenodd">
                                        <rect id="Rectangle" x="0" y="0" width="16" height="16"></rect>
                                    </g>
                                </g>
                            </g>
                        </g>
                    </g>
                </g>
            </g>
        </g>
    </g>
</svg>