<svg width="445" height="295" viewBox="0 0 445 295" fill="none" xmlns="http://www.w3.org/2000/svg">
<path d="M399.749 192.745H292.506C290.589 192.745 289.028 191.177 289.028 189.251V32.3404C289.028 30.4142 290.589 28.8467 292.506 28.8467H399.749C401.667 28.8467 403.227 30.4136 403.227 32.3404V189.251C403.227 191.178 401.667 192.745 399.749 192.745ZM292.506 28.9957C290.67 28.9957 289.177 30.4958 289.177 32.3404V189.251C289.177 191.096 290.671 192.596 292.506 192.596H399.749C401.585 192.596 403.079 191.096 403.079 189.251V32.3404C403.079 30.4964 401.585 28.9957 399.749 28.9957H292.506Z" fill="#E0E0E0"/>
<path d="M276.082 192.745H168.838C166.921 192.745 165.36 191.177 165.36 189.251V32.3404C165.36 30.4142 166.92 28.8467 168.838 28.8467H276.082C277.999 28.8467 279.56 30.4136 279.56 32.3404V189.251C279.56 191.178 277.999 192.745 276.082 192.745ZM168.838 28.9957C167.003 28.9957 165.509 30.4958 165.509 32.3404V189.251C165.509 191.096 167.003 192.596 168.838 192.596H276.082C277.918 192.596 279.411 191.096 279.411 189.251V32.3404C279.411 30.4964 277.917 28.9957 276.082 28.9957H168.838Z" fill="#E0E0E0"/>
<path d="M152.494 192.745H45.2511C43.3334 192.745 41.7729 191.177 41.7729 189.251V32.3404C41.7729 30.4142 43.3328 28.8467 45.2511 28.8467H152.494C154.411 28.8467 155.972 30.4136 155.972 32.3404V189.251C155.972 191.178 154.411 192.745 152.494 192.745ZM45.2511 28.9957C43.4153 28.9957 41.9213 30.4958 41.9213 32.3404V189.251C41.9213 191.096 43.4153 192.596 45.2511 192.596H152.494C154.33 192.596 155.823 191.096 155.823 189.251V32.3404C155.823 30.4964 154.33 28.9957 152.494 28.9957H45.2511Z" fill="#E0E0E0"/>
<path d="M445 220.429H0V220.5H445V220.429Z" fill="#E0E0E0"/>
<path d="M420.884 246.65H387.818V246.901H420.884V246.65Z" fill="#EBEBEB"/>
<path d="M302.405 249.371H293.726V249.622H302.405V249.371Z" fill="#EBEBEB"/>
<path d="M67.2367 239.023H24.1162V239.274H67.2367V239.023Z" fill="#EBEBEB"/>
<path d="M82.446 239.023H76.124V239.274H82.446V239.023Z" fill="#EBEBEB"/>
<path d="M196.512 243.258H102.995V243.509H196.512V243.258Z" fill="#EBEBEB"/>
<path d="M363.575 98.1344C362.08 97.0003 359.899 96.8715 358.282 97.8227C356.136 93.4672 350.157 91.5445 345.892 93.8397C344.779 89.1462 340.176 85.5386 335.373 85.5964C330.57 85.6542 326.054 89.3726 325.054 94.0918C324.895 94.8415 324.79 95.6634 324.256 96.2111C323.389 97.101 321.94 96.8024 320.704 96.7058C316.814 96.4013 312.9 99.1441 311.842 102.916L365.408 102.72C365.878 100.898 365.07 99.2692 363.575 98.1344Z" fill="#E0E0E0"/>
<path d="M196.289 64.6608C194.794 63.5266 192.613 63.3979 190.996 64.3491C188.85 59.9935 182.871 58.0708 178.606 60.366C177.493 55.6725 172.89 52.0649 168.087 52.1228C163.284 52.1806 158.768 55.899 157.768 60.6181C157.609 61.3679 157.504 62.1898 156.97 62.7375C156.102 63.6273 154.654 63.3287 153.418 63.2322C149.528 62.9276 145.614 65.6704 144.556 69.4425L198.122 69.2464C198.592 67.4245 197.784 65.7956 196.289 64.6608Z" fill="#E0E0E0"/>
<path d="M59.1916 47.0691C58.444 46.5017 57.3534 46.4373 56.5453 46.9129C55.4726 44.7351 52.4827 43.7738 50.3503 44.9211C49.7938 42.5741 47.4922 40.7706 45.0904 40.7992C42.6886 40.8284 40.431 42.6873 39.9308 45.0469C39.8513 45.4217 39.7991 45.8324 39.5315 46.1065C39.0977 46.5518 38.3733 46.4022 37.7556 46.3539C35.8107 46.2013 33.8539 47.5733 33.3252 49.459L60.1083 49.3613C60.3426 48.4506 59.9392 47.6365 59.1916 47.0691Z" fill="#F0F0F0"/>
<path d="M323.041 50.74C322.293 50.1726 321.203 50.1082 320.395 50.5838C319.322 48.406 316.332 47.4447 314.2 48.592C313.643 46.245 311.341 44.4415 308.94 44.4701C306.538 44.4993 304.28 46.3582 303.78 48.7178C303.7 49.0926 303.648 49.5033 303.381 49.7774C302.947 50.2227 302.222 50.0731 301.605 50.0248C299.66 49.8722 297.703 51.2442 297.174 53.1299L323.957 53.0322C324.191 52.1215 323.788 51.3068 323.04 50.7394L323.041 50.74Z" fill="#F0F0F0"/>
<path d="M244.309 33.1619C243.561 32.5945 242.471 32.5301 241.662 33.0057C240.59 30.8279 237.6 29.8666 235.467 31.0139C234.911 28.6668 232.609 26.8633 230.208 26.8919C227.806 26.9211 225.548 28.7801 225.048 31.1396C224.968 31.5145 224.916 31.9258 224.649 32.1993C224.215 32.6445 223.49 32.4949 222.873 32.4467C220.928 32.2941 218.971 33.6661 218.442 35.5518L245.225 35.4541C245.46 34.5434 245.056 33.7292 244.309 33.1619Z" fill="#F0F0F0"/>
<path d="M74.4352 129.493C73.6876 128.926 72.5971 128.861 71.7889 129.337C70.7162 127.159 67.7264 126.198 65.594 127.345C65.0374 124.998 62.7359 123.194 60.3341 123.223C57.9322 123.252 55.6746 125.111 55.1744 127.471C55.0949 127.846 55.0427 128.256 54.7751 128.53C54.3414 128.976 53.6169 128.826 52.9993 128.778C51.0543 128.625 49.0975 129.997 48.5688 131.883L75.3519 131.785C75.5863 130.874 75.1828 130.06 74.4352 129.493Z" fill="#F0F0F0"/>
<path d="M416.089 76.5472C415.093 75.7909 413.639 75.7051 412.561 76.3392C411.131 73.4355 407.145 72.1541 404.302 73.6841C403.56 70.5551 400.492 68.1502 397.29 68.1889C394.088 68.2277 391.078 70.7058 390.411 73.8521C390.306 74.3522 390.235 74.8999 389.879 75.2646C389.301 75.8577 388.335 75.6586 387.511 75.5942C384.918 75.391 382.309 77.2195 381.604 79.7341L417.311 79.6035C417.623 78.3889 417.085 77.3036 416.089 76.5472Z" fill="#F0F0F0"/>
<path d="M140.04 118.422V115.457C140.01 115.263 139.829 115.13 139.636 115.159C139.483 115.183 139.363 115.304 139.339 115.457V118.712C139.343 118.902 139.496 119.055 139.686 119.06C140.464 119.06 141.095 119.694 141.095 120.476C141.095 121.258 140.464 121.892 139.686 121.892C138.907 121.892 138.276 121.258 138.276 120.476C138.276 120.029 137.526 120.029 137.575 120.476C137.748 122.232 139.793 123.391 141.186 121.984C141.997 121.142 141.974 119.8 141.136 118.986C140.835 118.693 140.453 118.496 140.04 118.423V118.422Z" fill="#E7E7E7"/>
<path d="M88.2805 97.1888V103.599L81.561 96.8574L81.2312 97.1888H80.7612V158.025H89.2121V97.1888H88.2805ZM81.6851 143.566L87.613 149.537H81.7017L81.6851 143.566ZM81.6851 128.477L87.5964 134.415H81.7017L81.6851 128.477ZM81.6851 113.38L87.5964 119.326H81.7017L81.6851 113.38ZM81.6851 98.2908L87.5964 104.229H81.7017L81.6851 98.2908ZM87.5964 105.173L81.6851 111.111V105.173H87.5964ZM88.2645 105.836V111.774H82.3615L88.2645 105.836ZM87.5964 120.262L81.6851 126.209V120.262H87.5964ZM88.2645 120.933V126.871H82.3615L88.2645 120.933ZM87.5964 135.36L81.6851 141.298V135.36H87.5964ZM88.2645 136.023V141.961H82.3615L88.2645 136.023ZM87.5964 150.45L81.6851 156.388V150.45H87.5964ZM82.3448 157.075L88.2645 151.129V157.075H82.3448ZM88.2645 148.86L82.3615 142.913H88.2811L88.2645 148.86ZM88.2645 133.771L82.3448 127.833H88.2811L88.2645 133.771ZM88.2645 118.673L82.3448 112.735H88.2811L88.2645 118.673Z" fill="#F0F0F0"/>
<path d="M81.7017 77.1465V88.9395H82.6415V84.4177L87.473 89.2709L87.8029 88.9395H88.2728V77.1465H81.7017ZM86.6483 78.0905L82.6166 82.1404V78.0905H86.6483ZM87.3164 87.8048L83.2764 83.7466H87.3164V87.8048ZM83.2764 82.8359L87.3164 78.7777V82.8359H83.2764Z" fill="#F0F0F0"/>
<path d="M66.284 97.1885H55.0137V108.509H66.284V97.1885Z" fill="#E0E0E0"/>
<path d="M139.842 113.511H139.215V91.7549L86.7473 74.2724H83.2763L55.179 91.7966L54.8491 91.2584L83.0948 73.6514H86.8458L86.8956 73.6681L139.842 91.2995V113.511Z" fill="#E0E0E0"/>
<path d="M133.428 97.6769H134.038L140.633 91.0518H54.5439V97.6769H133.428ZM134.359 91.9958H138.399L134.359 96.054V91.9958ZM55.4838 96.7161V92.6663L59.5155 96.7161H55.4838ZM60.1747 96.0534L56.143 91.9952H60.1747V96.0534ZM61.1145 91.9952H65.1545L61.1145 96.0534V91.9952ZM65.8137 96.7155H61.7737L65.8137 92.6657V96.7155ZM66.7452 96.7155V92.6657L70.7853 96.7155H66.7452ZM71.4445 96.0528L67.4128 91.9946H71.4445V96.0528ZM72.3843 91.9946H76.416L72.3843 96.0528V91.9946ZM77.0835 96.7149H73.0275L77.0675 92.6651L77.0841 96.7149H77.0835ZM78.015 96.7149V92.6651L82.055 96.7149H78.015ZM82.7142 96.0522L78.6825 91.994H82.7142V96.0522ZM83.6541 91.994H87.6858L83.6541 96.0522V91.994ZM88.345 96.7143H84.3133L88.345 92.6645V96.7143ZM89.2848 96.7143V92.6645L93.3165 96.7143H89.2848ZM93.984 96.0516L89.944 91.9934H93.984V96.0516ZM94.9155 91.9934H98.9555L94.9155 96.0516V91.9934ZM99.6147 96.7138H95.583L99.6147 92.6639V96.7138ZM100.555 96.7138V92.6639L104.586 96.7138H100.555ZM105.254 96.051L101.214 91.9928H105.254V96.051ZM106.185 91.9928H110.225L106.185 96.051V91.9928ZM110.885 96.7132H106.828L110.86 92.6633L110.885 96.7132ZM111.824 96.7132V92.6633L115.856 96.7132H111.824ZM116.515 96.0504L112.484 91.9922H116.515V96.0504ZM117.455 91.9922H121.487L117.455 96.0504V91.9922ZM122.154 96.7126H118.114L122.154 92.6627V96.7126ZM123.086 91.9922H127.126L123.086 96.0504V91.9922ZM127.785 96.7126H123.753L127.785 92.6627V96.7126ZM128.725 96.7126V92.6627L132.757 96.7126H128.725ZM129.385 91.9922H133.425V96.0504L129.385 91.9922Z" fill="#F0F0F0"/>
<path d="M93.3755 99.7551H76.062L76.6969 92.4344C76.8642 90.4563 78.5131 88.9371 80.4895 88.9395H88.7338C90.6687 88.9395 92.2962 90.3961 92.5181 92.3265L93.3755 99.7551Z" fill="#F0F0F0"/>
<path d="M82.1796 91.9795H78.8486V95.3254H82.1796V91.9795Z" fill="#F8F8F8"/>
<path d="M86.3847 91.9795H83.0537V95.3254H86.3847V91.9795Z" fill="#F8F8F8"/>
<path d="M90.5888 91.9795H87.2578V95.3254H90.5888V91.9795Z" fill="#F8F8F8"/>
<path d="M84.9908 77.6191C86.2429 77.6191 87.2579 76.5995 87.2579 75.3418C87.2579 74.084 86.2429 73.0645 84.9908 73.0645C83.7387 73.0645 82.7236 74.084 82.7236 75.3418C82.7236 76.5995 83.7387 77.6191 84.9908 77.6191Z" fill="#E0E0E0"/>
<path d="M139.685 117.412C138.613 117.407 137.748 116.533 137.748 115.458V113.512H141.623V115.458C141.623 116.534 140.756 117.408 139.685 117.412H139.685Z" fill="#E0E0E0"/>
<path d="M296.1 76.8779H233.162V219.789H296.1V76.8779Z" fill="#E0E0E0"/>
<path d="M245.248 61.5986V76.8783H250.211H279.051H284.014V61.5986H245.248Z" fill="#E0E0E0"/>
<path d="M297.403 75.3125H231.867V76.9604H297.403V75.3125Z" fill="#F0F0F0"/>
<path d="M285.663 59.958H243.607V61.6059H285.663V59.958Z" fill="#F0F0F0"/>
<path d="M282.983 76.8779H220.045V219.789H282.983V76.8779Z" fill="#F0F0F0"/>
<path d="M232.131 61.5986V76.8783H237.094H265.934H270.897V61.5986H232.131Z" fill="#F0F0F0"/>
<path d="M232.122 80.9268H224.067V89.018H232.122V80.9268Z" fill="white"/>
<path d="M247.73 80.9268H239.675V89.018H247.73V80.9268Z" fill="white"/>
<path d="M263.337 80.9268H255.282V89.018H263.337V80.9268Z" fill="white"/>
<path d="M278.952 80.9268H270.897V89.018H278.952V80.9268Z" fill="white"/>
<path d="M232.122 95.6348H224.067V103.726H232.122V95.6348Z" fill="white"/>
<path d="M247.73 95.6348H239.675V103.726H247.73V95.6348Z" fill="white"/>
<path d="M263.337 95.6348H255.282V103.726H263.337V95.6348Z" fill="white"/>
<path d="M278.952 95.6348H270.897V103.726H278.952V95.6348Z" fill="white"/>
<path d="M232.122 110.343H224.067V118.434H232.122V110.343Z" fill="white"/>
<path d="M247.73 110.343H239.675V118.434H247.73V110.343Z" fill="white"/>
<path d="M263.337 110.343H255.282V118.434H263.337V110.343Z" fill="white"/>
<path d="M247.73 68.2148H239.675V76.3061H247.73V68.2148Z" fill="white"/>
<path d="M263.337 68.2148H255.282V76.3061H263.337V68.2148Z" fill="white"/>
<path d="M278.952 110.343H270.897V118.434H278.952V110.343Z" fill="white"/>
<path d="M232.122 125.043H224.067V133.134H232.122V125.043Z" fill="white"/>
<path d="M247.73 125.043H239.675V133.134H247.73V125.043Z" fill="white"/>
<path d="M263.337 125.043H255.282V133.134H263.337V125.043Z" fill="white"/>
<path d="M278.952 125.043H270.897V133.134H278.952V125.043Z" fill="white"/>
<path d="M232.122 139.751H224.067V147.842H232.122V139.751Z" fill="white"/>
<path d="M247.73 139.751H239.675V147.842H247.73V139.751Z" fill="white"/>
<path d="M263.337 139.751H255.282V147.842H263.337V139.751Z" fill="white"/>
<path d="M278.952 139.751H270.897V147.842H278.952V139.751Z" fill="white"/>
<path d="M232.122 154.459H224.067V162.55H232.122V154.459Z" fill="white"/>
<path d="M247.73 154.459H239.675V162.55H247.73V154.459Z" fill="white"/>
<path d="M263.337 154.459H255.282V162.55H263.337V154.459Z" fill="white"/>
<path d="M278.952 154.459H270.897V162.55H278.952V154.459Z" fill="white"/>
<path d="M232.122 169.167H224.067V177.258H232.122V169.167Z" fill="white"/>
<path d="M247.73 169.167H239.675V177.258H247.73V169.167Z" fill="white"/>
<path d="M263.337 169.167H255.282V177.258H263.337V169.167Z" fill="white"/>
<path d="M278.952 169.167H270.897V177.258H278.952V169.167Z" fill="white"/>
<path d="M232.122 183.068H224.067V191.16H232.122V183.068Z" fill="white"/>
<path d="M247.73 183.068H239.675V191.16H247.73V183.068Z" fill="white"/>
<path d="M263.337 183.068H255.282V191.16H263.337V183.068Z" fill="white"/>
<path d="M278.952 183.068H270.897V191.16H278.952V183.068Z" fill="white"/>
<path d="M232.122 196.969H224.067V205.06H232.122V196.969Z" fill="white"/>
<path d="M247.73 196.969H239.675V205.06H247.73V196.969Z" fill="white"/>
<path d="M263.337 196.969H255.282V205.06H263.337V196.969Z" fill="white"/>
<path d="M278.952 196.969H270.897V205.06H278.952V196.969Z" fill="white"/>
<path d="M232.122 210.87H224.067V218.961H232.122V210.87Z" fill="white"/>
<path d="M247.73 210.87H239.675V218.961H247.73V210.87Z" fill="white"/>
<path d="M263.337 210.87H255.282V218.961H263.337V210.87Z" fill="white"/>
<path d="M278.952 210.87H270.897V218.961H278.952V210.87Z" fill="white"/>
<path d="M284.278 75.3125H218.742V76.9604H284.278V75.3125Z" fill="#F0F0F0"/>
<path d="M272.537 59.958H230.482V61.6059H272.537V59.958Z" fill="#F0F0F0"/>
<path d="M375.388 120.782H318.113V220.261H375.388V120.782Z" fill="#E0E0E0"/>
<path d="M376.568 119.357H316.935V120.856H376.568V119.357Z" fill="#F0F0F0"/>
<path d="M363.45 120.782H306.175V220.261H363.45V120.782Z" fill="#F0F0F0"/>
<path d="M317.174 124.468H309.844V131.83H317.174V124.468Z" fill="white"/>
<path d="M331.371 124.468H324.042V131.83H331.371V124.468Z" fill="white"/>
<path d="M345.576 124.468H338.246V131.83H345.576V124.468Z" fill="white"/>
<path d="M359.782 124.468H352.452V131.83H359.782V124.468Z" fill="white"/>
<path d="M317.174 137.851H309.844V145.213H317.174V137.851Z" fill="white"/>
<path d="M331.371 137.851H324.042V145.213H331.371V137.851Z" fill="white"/>
<path d="M345.576 137.851H338.246V145.213H345.576V137.851Z" fill="white"/>
<path d="M359.782 137.851H352.452V145.213H359.782V137.851Z" fill="white"/>
<path d="M317.174 151.226H309.844V158.588H317.174V151.226Z" fill="white"/>
<path d="M331.371 151.226H324.042V158.588H331.371V151.226Z" fill="white"/>
<path d="M345.576 151.226H338.246V158.588H345.576V151.226Z" fill="white"/>
<path d="M359.782 151.226H352.452V158.588H359.782V151.226Z" fill="white"/>
<path d="M317.174 164.608H309.844V171.971H317.174V164.608Z" fill="white"/>
<path d="M331.371 164.608H324.042V171.971H331.371V164.608Z" fill="white"/>
<path d="M345.576 164.608H338.246V171.971H345.576V164.608Z" fill="white"/>
<path d="M359.782 164.608H352.452V171.971H359.782V164.608Z" fill="white"/>
<path d="M317.174 177.991H309.844V185.354H317.174V177.991Z" fill="white"/>
<path d="M331.371 177.991H324.042V185.354H331.371V177.991Z" fill="white"/>
<path d="M345.576 177.991H338.246V185.354H345.576V177.991Z" fill="white"/>
<path d="M359.782 177.991H352.452V185.354H359.782V177.991Z" fill="white"/>
<path d="M317.174 191.375H309.844V198.737H317.174V191.375Z" fill="white"/>
<path d="M331.371 191.375H324.042V198.737H331.371V191.375Z" fill="white"/>
<path d="M345.576 191.375H338.246V198.737H345.576V191.375Z" fill="white"/>
<path d="M359.782 191.375H352.452V198.737H359.782V191.375Z" fill="white"/>
<path d="M317.174 204.758H309.844V212.12H317.174V204.758Z" fill="white"/>
<path d="M331.371 204.758H324.042V212.12H331.371V204.758Z" fill="white"/>
<path d="M345.576 204.758H338.246V212.12H345.576V204.758Z" fill="white"/>
<path d="M359.782 204.758H352.452V212.12H359.782V204.758Z" fill="white"/>
<path d="M364.629 119.357H304.996V120.856H364.629V119.357Z" fill="#F0F0F0"/>
<path d="M208.197 110.936H145.258V220.253H208.197V110.936Z" fill="#E0E0E0"/>
<path d="M157.345 95.6562V110.936H162.308H191.148H196.111V95.6562H157.345Z" fill="#E0E0E0"/>
<path d="M209.499 109.37H143.964V111.018H209.499V109.37Z" fill="#F0F0F0"/>
<path d="M197.76 94.0166H155.704V95.6645H197.76V94.0166Z" fill="#F0F0F0"/>
<path d="M195.08 110.936H132.141V220.253H195.08V110.936Z" fill="#F0F0F0"/>
<path d="M144.228 95.6562V110.936H149.191H178.03H182.993V95.6562H144.228Z" fill="#F0F0F0"/>
<path d="M144.22 114.985H136.165V123.077H144.22V114.985Z" fill="white"/>
<path d="M159.827 114.985H151.772V123.077H159.827V114.985Z" fill="white"/>
<path d="M175.433 114.985H167.378V123.077H175.433V114.985Z" fill="white"/>
<path d="M191.049 114.985H182.994V123.077H191.049V114.985Z" fill="white"/>
<path d="M144.22 129.693H136.165V137.785H144.22V129.693Z" fill="white"/>
<path d="M159.827 129.693H151.772V137.785H159.827V129.693Z" fill="white"/>
<path d="M175.433 129.693H167.378V137.785H175.433V129.693Z" fill="white"/>
<path d="M191.049 129.693H182.994V137.785H191.049V129.693Z" fill="white"/>
<path d="M144.22 144.401H136.165V152.493H144.22V144.401Z" fill="white"/>
<path d="M159.827 144.401H151.772V152.493H159.827V144.401Z" fill="white"/>
<path d="M175.433 144.401H167.378V152.493H175.433V144.401Z" fill="white"/>
<path d="M159.827 102.272H151.772V110.364H159.827V102.272Z" fill="white"/>
<path d="M175.433 102.272H167.378V110.364H175.433V102.272Z" fill="white"/>
<path d="M191.049 144.401H182.994V152.493H191.049V144.401Z" fill="white"/>
<path d="M144.22 159.102H136.165V167.193H144.22V159.102Z" fill="white"/>
<path d="M159.827 159.102H151.772V167.193H159.827V159.102Z" fill="white"/>
<path d="M175.433 159.102H167.378V167.193H175.433V159.102Z" fill="white"/>
<path d="M191.049 159.102H182.994V167.193H191.049V159.102Z" fill="white"/>
<path d="M144.22 173.81H136.165V181.901H144.22V173.81Z" fill="white"/>
<path d="M159.827 173.81H151.772V181.901H159.827V173.81Z" fill="white"/>
<path d="M175.433 173.81H167.378V181.901H175.433V173.81Z" fill="white"/>
<path d="M191.049 173.81H182.994V181.901H191.049V173.81Z" fill="white"/>
<path d="M144.22 188.518H136.165V196.609H144.22V188.518Z" fill="white"/>
<path d="M159.827 188.518H151.772V196.609H159.827V188.518Z" fill="white"/>
<path d="M175.433 188.518H167.378V196.609H175.433V188.518Z" fill="white"/>
<path d="M191.049 188.518H182.994V196.609H191.049V188.518Z" fill="white"/>
<path d="M144.22 203.226H136.165V211.317H144.22V203.226Z" fill="white"/>
<path d="M159.827 203.226H151.772V211.317H159.827V203.226Z" fill="white"/>
<path d="M175.433 203.226H167.378V211.317H175.433V203.226Z" fill="white"/>
<path d="M191.049 203.226H182.994V211.317H191.049V203.226Z" fill="white"/>
<path d="M196.374 109.37H130.839V111.018H196.374V109.37Z" fill="#F0F0F0"/>
<path d="M184.635 94.0166H142.579V95.6645H184.635V94.0166Z" fill="#F0F0F0"/>
<path d="M88.1652 156.964H48.3442V219.788H111.893V156.964V129.097L88.1652 156.964Z" fill="#F0F0F0"/>
<path d="M123.756 129.105H111.893V219.789H123.756V129.105Z" fill="#E0E0E0"/>
<path d="M60.7603 169.693H51.3037V179.192H60.7603V169.693Z" fill="#E0E0E0"/>
<path d="M60.7603 185.677H51.3037V195.176H60.7603V185.677Z" fill="#E0E0E0"/>
<path d="M60.7603 201.66H51.3037V211.159H60.7603V201.66Z" fill="#E0E0E0"/>
<path d="M76.7051 169.693H67.2485V179.192H76.7051V169.693Z" fill="#E0E0E0"/>
<path opacity="0.3" d="M76.7135 169.693H68.3042V179.192H76.7135V169.693Z" fill="white"/>
<path d="M76.7051 185.677H67.2485V195.176H76.7051V185.677Z" fill="#E0E0E0"/>
<path opacity="0.3" d="M76.7135 185.677H68.3042V195.176H76.7135V185.677Z" fill="white"/>
<path d="M76.7051 201.66H67.2485V211.159H76.7051V201.66Z" fill="#E0E0E0"/>
<path opacity="0.3" d="M76.7135 201.66H68.3042V211.159H76.7135V201.66Z" fill="white"/>
<path opacity="0.2" d="M77.7607 201.66H68.3042V211.159H77.7607V201.66Z" fill="white"/>
<path d="M92.6504 169.693H83.1938V179.192H92.6504V169.693Z" fill="#E0E0E0"/>
<path opacity="0.3" d="M92.6578 169.693H84.2485V179.192H92.6578V169.693Z" fill="white"/>
<path d="M92.6504 185.677H83.1938V195.176H92.6504V185.677Z" fill="#E0E0E0"/>
<path opacity="0.3" d="M92.6578 185.677H84.2485V195.176H92.6578V185.677Z" fill="white"/>
<path d="M92.6504 201.66H83.1938V211.159H92.6504V201.66Z" fill="#E0E0E0"/>
<path opacity="0.3" d="M92.6578 201.66H84.2485V211.159H92.6578V201.66Z" fill="white"/>
<path opacity="0.2" d="M93.7051 201.66H84.2485V211.159H93.7051V201.66Z" fill="white"/>
<path d="M108.595 169.693H99.1382V179.192H108.595V169.693Z" fill="#E0E0E0"/>
<path opacity="0.3" d="M108.603 169.693H100.194V179.192H108.603V169.693Z" fill="white"/>
<path d="M108.595 185.677H99.1382V195.176H108.595V185.677Z" fill="#E0E0E0"/>
<path opacity="0.3" d="M108.603 185.677H100.194V195.176H108.603V185.677Z" fill="white"/>
<path d="M108.595 201.66H99.1382V211.159H108.595V201.66Z" fill="#E0E0E0"/>
<path opacity="0.3" d="M108.603 201.66H100.194V211.159H108.603V201.66Z" fill="white"/>
<path opacity="0.2" d="M109.65 201.66H100.194V211.159H109.65V201.66Z" fill="white"/>
<path d="M378.268 257.531C378.268 259.549 308.528 261.185 222.5 261.185C136.471 261.185 66.7314 259.549 66.7314 257.531C66.7314 255.512 136.471 253.876 222.5 253.876C308.528 253.876 378.268 255.512 378.268 257.531Z" fill="#F5F5F5"/>
<path d="M118.231 50.1299C109.825 51.2229 97.0142 54.039 86.9893 59.3238V61.3114C86.9893 61.3114 100.841 53.247 118.302 51.7933L118.231 50.1299Z" fill="#219AF3"/>
<path d="M132.895 53.1149C132.357 52.6453 131.752 52.2585 131.101 51.9682C129.654 51.368 120.896 52.659 117.901 53.1334V51.8544L117.823 50.185C119.862 49.9746 121.691 49.825 123.204 49.7284C125.726 49.5902 127.591 49.5061 128.979 49.4644C131.04 49.3643 132.791 50.9616 132.891 53.0321C132.892 53.0601 132.893 53.0881 132.894 53.1155L132.895 53.1149Z" fill="#219AF3"/>
<path d="M109.012 52.623H107.649V58.6099H109.012V52.623Z" fill="#263238"/>
<path d="M86.9891 73.4296C86.3969 73.407 85.93 72.9141 85.9371 72.3187C85.9371 71.7781 85.9371 70.6553 91.5566 65.5571C92.3451 64.8204 93.1841 64.1404 94.0675 63.5211C101.528 58.4051 110.699 57.1261 111.081 57.0778C111.654 56.9592 112.213 57.3293 112.331 57.9044C112.449 58.4796 112.081 59.0416 111.508 59.1596C111.46 59.1697 111.411 59.1763 111.362 59.1793C111.272 59.1793 102.294 60.4464 95.2572 65.2746C94.4538 65.839 93.6908 66.4594 92.9734 67.1299C89.3149 70.4449 88.149 72.0118 88.0357 72.4147C88.0357 72.9749 87.5842 73.4296 87.0259 73.4302C87.014 73.4302 87.0015 73.4302 86.9897 73.4296H86.9891Z" fill="#263238"/>
<path d="M85.4761 59.0176H87.8138C87.8933 59.0176 87.9574 59.0819 87.9574 59.1618V216.522H85.3271V59.1618C85.3271 59.0819 85.3912 59.0176 85.4707 59.0176H85.4761Z" fill="#263238"/>
<path d="M133.965 53.2285V53.3125L121.704 54.4717L118.978 53.3125V53.1325C121.967 52.6581 130.731 51.3308 132.178 51.9673C132.829 52.2588 133.433 52.6456 133.972 53.114C133.976 53.1522 133.974 53.1909 133.966 53.2279L133.965 53.2285Z" fill="#219AF3"/>
<path opacity="0.6" d="M133.965 53.2285V53.3125L121.704 54.4717L118.978 53.3125V53.1325C121.967 52.6581 130.731 51.3308 132.178 51.9673C132.829 52.2588 133.433 52.6456 133.972 53.114C133.976 53.1522 133.974 53.1909 133.966 53.2279L133.965 53.2285Z" fill="white"/>
<path d="M369.844 53.1602C361.438 54.2532 348.627 57.0693 338.602 62.3541V64.3417C338.602 64.3417 352.453 56.2772 369.915 54.8236L369.844 53.1602Z" fill="#219AF3"/>
<path d="M384.508 56.1442C383.971 55.6746 383.366 55.2878 382.715 54.9975C381.268 54.3968 372.51 55.6883 369.515 56.1627V54.8837L369.437 53.2143C371.476 53.0039 373.305 52.8537 374.817 52.7577C377.34 52.6195 379.205 52.5354 380.592 52.4937C382.654 52.3936 384.405 53.9909 384.505 56.0608C384.506 56.0888 384.507 56.1168 384.508 56.1448L384.508 56.1442Z" fill="#219AF3"/>
<path d="M360.626 55.6523H359.263V61.6392H360.626V55.6523Z" fill="#263238"/>
<path d="M338.602 76.4599C338.01 76.4373 337.543 75.9444 337.55 75.349C337.55 74.8084 337.55 73.6855 343.17 68.5874C343.958 67.8507 344.797 67.1707 345.681 66.5514C353.141 61.4354 362.312 60.1563 362.695 60.1081C363.267 59.9895 363.827 60.3596 363.944 60.9347C364.062 61.5099 363.694 62.0719 363.121 62.1899C363.073 62.2 363.025 62.2066 362.975 62.2096C362.886 62.2096 353.907 63.4767 346.87 68.3048C346.067 68.8693 345.304 69.4897 344.587 70.1602C340.928 73.4752 339.762 75.042 339.649 75.4443C339.649 76.0046 339.197 76.4593 338.639 76.4599C338.627 76.4599 338.615 76.4599 338.602 76.4593V76.4599Z" fill="#263238"/>
<path d="M337.09 62.0469H339.428C339.506 62.0469 339.571 62.1112 339.571 62.1911V219.552H336.941V62.1911C336.941 62.1118 337.005 62.0469 337.085 62.0469H337.09Z" fill="#263238"/>
<path d="M385.578 56.2588V56.3428L373.317 57.502L370.591 56.3428V56.1628C373.581 55.6884 382.344 54.3611 383.791 54.9976C384.442 55.2891 385.046 55.6759 385.585 56.1443C385.59 56.1825 385.587 56.2212 385.579 56.2582L385.578 56.2588Z" fill="#219AF3"/>
<path opacity="0.6" d="M385.578 56.2588V56.3428L373.317 57.502L370.591 56.3428V56.1628C373.581 55.6884 382.344 54.3611 383.791 54.9976C384.442 55.2891 385.046 55.6759 385.585 56.1443C385.59 56.1825 385.587 56.2212 385.579 56.2582L385.578 56.2588Z" fill="white"/>
<path d="M287.5 240.727L290.976 209.477L311.444 195.123H333.877L360.105 212.416L361.264 240.727L355.374 242.731L287.5 246.159V240.727Z" fill="#219AF3"/>
<path opacity="0.4" d="M287.5 240.727L290.976 209.477L311.444 195.123H333.877L360.105 212.416L361.264 240.727L355.374 242.731L287.5 246.159V240.727Z" fill="black"/>
<path d="M324.378 257.121C339.569 257.121 351.884 244.779 351.884 229.554C351.884 214.329 339.569 201.987 324.378 201.987C309.187 201.987 296.873 214.329 296.873 229.554C296.873 244.779 309.187 257.121 324.378 257.121Z" fill="#263238"/>
<path opacity="0.4" d="M324.378 246.455C333.692 246.455 341.241 238.888 341.241 229.554C341.241 220.22 333.692 212.653 324.378 212.653C315.065 212.653 307.515 220.22 307.515 229.554C307.515 238.888 315.065 246.455 324.378 246.455Z" fill="white"/>
<g opacity="0.3">
<path d="M324.371 214.35H324.379C325.122 214.35 325.726 214.956 325.726 215.703V224.36C325.726 225.107 325.122 225.712 324.38 225.712H324.371C323.627 225.712 323.024 225.106 323.024 224.36V215.703C323.024 214.956 323.627 214.35 324.371 214.35Z" fill="white"/>
</g>
<g opacity="0.3">
<path d="M324.371 233.393H324.379C325.122 233.393 325.726 233.999 325.726 234.746V243.403C325.726 244.15 325.122 244.755 324.38 244.755H324.371C323.627 244.755 323.024 244.149 323.024 243.403V234.746C323.024 233.999 323.627 233.393 324.371 233.393Z" fill="white"/>
</g>
<g opacity="0.3">
<path d="M329.521 228.135C328.878 228.5 328.062 228.273 327.698 227.628C327.324 226.983 327.542 226.157 328.185 225.782L335.674 221.428L335.678 221.427C336.323 221.055 337.146 221.279 337.516 221.925L337.518 221.928C337.888 222.575 337.665 223.4 337.02 223.771L329.54 228.124L329.522 228.135H329.521Z" fill="white"/>
</g>
<g opacity="0.3">
<path d="M311.235 237.119L311.233 237.116C310.863 236.469 311.085 235.644 311.73 235.273L319.211 230.92C319.856 230.543 320.684 230.762 321.061 231.407C321.435 232.056 321.214 232.886 320.566 233.262L313.086 237.616C312.438 237.99 311.609 237.768 311.235 237.119Z" fill="white"/>
</g>
<g opacity="0.3">
<path d="M337.513 237.157C337.141 237.803 336.317 238.023 335.673 237.65L328.184 233.297C327.54 232.918 327.322 232.089 327.697 231.442C328.072 230.797 328.896 230.579 329.538 230.954L337.019 235.308L337.022 235.31C337.666 235.683 337.886 236.508 337.514 237.154L337.512 237.157H337.513Z" fill="white"/>
</g>
<g opacity="0.3">
<path d="M321.052 227.642C320.677 228.285 319.852 228.502 319.21 228.125L311.73 223.771L311.727 223.769C311.083 223.396 310.863 222.571 311.235 221.925C311.609 221.276 312.437 221.055 313.085 221.429L320.565 225.783L320.569 225.785C321.213 226.158 321.433 226.983 321.061 227.629L321.053 227.642H321.052Z" fill="white"/>
</g>
<path d="M324.38 227.279C325.632 227.279 326.647 228.297 326.647 229.552C326.647 230.807 325.632 231.824 324.38 231.824C323.127 231.824 322.112 230.807 322.112 229.552C322.112 228.297 323.127 227.279 324.38 227.279Z" fill="#263238"/>
<path d="M80.2568 241.137L83.7326 209.886L104.201 195.532H126.634L152.861 212.826L154.02 241.137V246.568H80.2568V241.137Z" fill="#219AF3"/>
<path opacity="0.5" d="M80.2568 241.137L83.7326 209.886L104.201 195.532H126.634L152.861 212.826L154.02 241.137V246.568H80.2568V241.137Z" fill="black"/>
<path d="M145.993 190.059C145.993 190.059 167.573 176.662 187.393 171.08C207.213 165.498 222.78 160.9 222.78 160.9L169.889 192.292L145.993 190.06L145.993 190.059Z" fill="#263238"/>
<path d="M375.225 189.549L380.363 184.387L380.158 181.91H358.372C358.372 181.91 299.591 157.549 250.881 157.549C202.172 157.549 163.943 188.929 163.943 188.929L148.323 188.103C148.323 188.103 126.203 188.385 114.617 189.962C94.8858 192.645 60.5627 201.523 50.2861 215.562C50.2861 215.562 56.0409 239.716 69.6057 249.007H87.8785V228.649H87.9094C88.2399 213.025 100.927 200.456 116.56 200.456C132.193 200.456 144.879 213.025 145.21 228.649H145.241V249.007H295.949V228.649H295.98C296.311 213.025 308.997 200.456 324.63 200.456C340.262 200.456 352.95 213.025 353.28 228.649H353.311V244.365C362.951 243.026 371.525 241.357 376.663 239.304C376.663 239.304 387.968 226.504 388.584 219.898L375.225 189.549L375.225 189.549Z" fill="#219AF3"/>
<path opacity="0.3" d="M224.751 200.468C209.385 201.229 184.118 196.909 163.359 193.028C147.247 193.723 130.631 194.882 116.538 196.668C84.4338 200.734 64.0783 218.129 64.0783 218.129L50.291 215.578C50.348 215.815 53.0322 226.91 58.9768 236.896C64.5524 237.138 74.8746 237.56 87.8799 237.976V228.648H87.9107C88.2412 213.025 100.928 200.456 116.561 200.456C132.194 200.456 144.881 213.025 145.211 228.648H145.242V239.146C173.22 239.33 201.375 238.82 219.414 236.691C266.887 231.089 283.025 227.746 301.403 194.747C301.403 194.747 252.095 199.112 224.751 200.467L224.751 200.468Z" fill="black"/>
<g clip-path="url(#clip0_1467_1226)">
<mask id="mask0_1467_1226" style="mask-type:alpha" maskUnits="userSpaceOnUse" x="160" y="214" width="7" height="6">
<path d="M166.281 214.347L160.996 219.587C160.87 219.713 160.951 219.919 161.124 219.914L162.319 219.879C162.578 219.871 162.829 219.762 163.018 219.575L166.267 216.353C166.456 216.166 166.566 215.917 166.574 215.66L166.61 214.474C166.613 214.36 166.523 214.286 166.425 214.286C166.375 214.286 166.324 214.305 166.281 214.347Z" fill="white"/>
</mask>
<g mask="url(#mask0_1467_1226)">
<path fill-rule="evenodd" clip-rule="evenodd" d="M166.281 214.347L160.996 219.587C160.87 219.713 160.951 219.919 161.124 219.914L162.319 219.879C162.578 219.871 162.829 219.762 163.018 219.575L166.267 216.353C166.456 216.166 166.566 215.917 166.574 215.66L166.61 214.474C166.613 214.36 166.523 214.286 166.425 214.286C166.375 214.286 166.324 214.305 166.281 214.347Z" fill="white"/>
</g>
<mask id="mask1_1467_1226" style="mask-type:alpha" maskUnits="userSpaceOnUse" x="166" y="219" width="7" height="7">
<path d="M172.155 219.978L170.96 220.013C170.701 220.02 170.45 220.13 170.261 220.317L167.012 223.539C166.823 223.726 166.713 223.975 166.705 224.232L166.669 225.417C166.664 225.59 166.872 225.67 166.998 225.544L172.283 220.304C172.408 220.18 172.331 219.978 172.161 219.978C172.159 219.978 172.157 219.978 172.155 219.978Z" fill="white"/>
</mask>
<g mask="url(#mask1_1467_1226)">
<path fill-rule="evenodd" clip-rule="evenodd" d="M172.155 219.978L170.96 220.013C170.701 220.02 170.45 220.13 170.261 220.317L167.012 223.539C166.823 223.726 166.713 223.975 166.705 224.232L166.669 225.417C166.664 225.59 166.872 225.67 166.998 225.544L172.283 220.304C172.408 220.18 172.331 219.978 172.161 219.978C172.159 219.978 172.157 219.978 172.155 219.978Z" fill="white"/>
</g>
<mask id="mask2_1467_1226" style="mask-type:alpha" maskUnits="userSpaceOnUse" x="167" y="213" width="6" height="7">
<path d="M167.238 213.984L167.237 215.134C167.237 215.383 167.337 215.622 167.515 215.798L170.574 218.835C170.752 219.011 170.993 219.11 171.244 219.11L172.403 219.11C172.572 219.11 172.656 218.908 172.537 218.79L167.561 213.851C167.522 213.813 167.475 213.796 167.428 213.796C167.331 213.796 167.238 213.871 167.238 213.984Z" fill="white"/>
</mask>
<g mask="url(#mask2_1467_1226)">
<path fill-rule="evenodd" clip-rule="evenodd" d="M167.238 213.984L167.237 215.134C167.237 215.383 167.337 215.622 167.515 215.798L170.574 218.835C170.752 219.011 170.993 219.11 171.244 219.11L172.403 219.11C172.572 219.11 172.656 218.908 172.537 218.79L167.561 213.851C167.522 213.813 167.475 213.796 167.428 213.796C167.331 213.796 167.238 213.871 167.238 213.984Z" fill="white"/>
</g>
<mask id="mask3_1467_1226" style="mask-type:alpha" maskUnits="userSpaceOnUse" x="160" y="220" width="6" height="6">
<path d="M160.482 220.875L165.457 225.814C165.577 225.932 165.781 225.848 165.781 225.681L165.781 224.142L162.444 220.83C162.267 220.654 162.026 220.555 161.775 220.555L160.616 220.555C160.447 220.555 160.362 220.757 160.482 220.875Z" fill="white"/>
</mask>
<g mask="url(#mask3_1467_1226)">
<path fill-rule="evenodd" clip-rule="evenodd" d="M160.482 220.875L165.457 225.814C165.577 225.932 165.781 225.848 165.781 225.681L165.781 224.142L162.444 220.83C162.267 220.654 162.026 220.555 161.775 220.555L160.616 220.555C160.447 220.555 160.362 220.757 160.482 220.875Z" fill="white"/>
</g>
<mask id="mask4_1467_1226" style="mask-type:alpha" maskUnits="userSpaceOnUse" x="153" y="204" width="31" height="30">
<path d="M156.818 204C154.709 204 153 205.696 153 207.787V227.943L156.979 223.996C157.176 223.801 157.498 223.801 157.695 223.996C157.891 224.191 157.891 224.511 157.695 224.706L153 229.363V230.213C153 230.816 153.146 231.384 153.399 231.89L157.552 227.77C157.749 227.574 158.071 227.574 158.268 227.77C158.465 227.965 158.465 228.284 158.268 228.48L153.977 232.737C154.475 233.288 155.132 233.692 155.878 233.88L161.358 228.443C161.555 228.248 161.877 228.248 162.074 228.443C162.271 228.639 162.271 228.958 162.074 229.153L157.188 234H173.81C179.019 234 183.242 229.811 183.242 224.643C183.242 222.524 182.531 220.569 181.333 219C182.531 217.431 183.242 215.476 183.242 213.357C183.242 208.189 179.019 204 173.81 204H156.818ZM162.636 227.298L158.98 223.67C157.993 222.691 157.994 221.104 158.98 220.125L168.485 210.701C169.472 209.722 171.071 209.723 172.058 210.702L175.714 214.33C176.701 215.309 176.7 216.896 175.714 217.875L166.209 227.299C165.716 227.788 165.069 228.033 164.423 228.033C163.776 228.033 163.129 227.788 162.636 227.298Z" fill="white"/>
</mask>
<g mask="url(#mask4_1467_1226)">
<path fill-rule="evenodd" clip-rule="evenodd" d="M156.818 204C154.709 204 153 205.696 153 207.787V227.943L156.979 223.996C157.176 223.801 157.498 223.801 157.695 223.996C157.891 224.191 157.891 224.511 157.695 224.706L153 229.363V230.213C153 230.816 153.146 231.384 153.399 231.89L157.552 227.77C157.749 227.574 158.071 227.574 158.268 227.77C158.465 227.965 158.465 228.284 158.268 228.48L153.977 232.737C154.475 233.288 155.132 233.692 155.878 233.88L161.358 228.443C161.555 228.248 161.877 228.248 162.074 228.443C162.271 228.639 162.271 228.958 162.074 229.153L157.188 234H173.81C179.019 234 183.242 229.811 183.242 224.643C183.242 222.524 182.531 220.569 181.333 219C182.531 217.431 183.242 215.476 183.242 213.357C183.242 208.189 179.019 204 173.81 204H156.818ZM162.636 227.298L158.98 223.67C157.993 222.691 157.994 221.104 158.98 220.125L168.485 210.701C169.472 209.722 171.071 209.723 172.058 210.702L175.714 214.33C176.701 215.309 176.7 216.896 175.714 217.875L166.209 227.299C165.716 227.788 165.069 228.033 164.423 228.033C163.776 228.033 163.129 227.788 162.636 227.298Z" fill="white"/>
</g>
<path d="M194.005 225.021C193.859 225.021 193.739 224.974 193.646 224.881C193.567 224.775 193.54 224.649 193.567 224.503L196.316 211.591C196.343 211.445 196.416 211.326 196.535 211.233C196.668 211.126 196.808 211.073 196.954 211.073H202.971C204.114 211.073 205.063 211.233 205.821 211.551C206.591 211.87 207.136 212.329 207.454 212.926C207.787 213.524 207.86 214.261 207.674 215.138C207.581 215.603 207.401 216.015 207.136 216.373C206.883 216.719 206.604 217.004 206.299 217.23C206.007 217.456 205.741 217.622 205.502 217.728C205.967 217.967 206.332 218.353 206.598 218.884C206.863 219.415 206.923 220.026 206.777 220.717C206.578 221.647 206.232 222.431 205.741 223.068C205.263 223.706 204.618 224.191 203.808 224.523C203.011 224.855 202.028 225.021 200.859 225.021H194.005ZM198.388 222.012H200.7C201.151 222.012 201.51 221.879 201.776 221.614C202.055 221.335 202.227 221.029 202.294 220.697C202.387 220.352 202.354 220.053 202.194 219.8C202.035 219.535 201.723 219.402 201.258 219.402H198.946L198.388 222.012ZM199.564 216.473H201.676C202.088 216.473 202.42 216.353 202.672 216.114C202.938 215.875 203.111 215.596 203.19 215.277C203.244 214.959 203.204 214.68 203.071 214.441C202.938 214.202 202.666 214.082 202.254 214.082H200.082L199.564 216.473Z" fill="white"/>
<path d="M208.107 225.021C207.974 225.021 207.861 224.974 207.768 224.881C207.689 224.775 207.662 224.649 207.689 224.503L210.458 211.591C210.485 211.445 210.558 211.326 210.677 211.233C210.797 211.126 210.93 211.073 211.076 211.073H214.443C214.589 211.073 214.702 211.126 214.782 211.233C214.862 211.326 214.888 211.445 214.862 211.591L212.112 224.503C212.085 224.649 212.012 224.775 211.893 224.881C211.773 224.974 211.64 225.021 211.494 225.021H208.107Z" fill="white"/>
<path d="M214.796 225.021C214.65 225.021 214.531 224.974 214.438 224.881C214.358 224.775 214.331 224.649 214.358 224.503L217.108 211.591C217.134 211.445 217.207 211.326 217.327 211.233C217.46 211.126 217.599 211.073 217.745 211.073H222.826C223.676 211.073 224.473 211.193 225.217 211.432C225.974 211.671 226.625 212.023 227.17 212.488C227.714 212.94 228.106 213.504 228.345 214.182C228.598 214.859 228.644 215.643 228.485 216.533C228.392 217.104 228.299 217.609 228.206 218.047C228.113 218.485 227.993 218.984 227.847 219.541C227.529 220.79 227.077 221.82 226.492 222.63C225.908 223.44 225.144 224.045 224.201 224.443C223.271 224.828 222.109 225.021 220.714 225.021H214.796ZM219.26 221.634H220.953C221.392 221.634 221.777 221.561 222.109 221.414C222.454 221.268 222.74 221.042 222.966 220.737C223.205 220.418 223.384 220.013 223.504 219.522C223.61 219.136 223.696 218.791 223.763 218.485C223.829 218.18 223.889 217.874 223.942 217.569C224.008 217.263 224.075 216.925 224.141 216.553C224.261 215.822 224.161 215.291 223.842 214.959C223.537 214.627 223.052 214.461 222.388 214.461H220.794L219.26 221.634Z" fill="white"/>
<path d="M234.872 225.22C233.969 225.22 233.139 225.114 232.382 224.901C231.624 224.675 230.98 224.343 230.449 223.905C229.931 223.453 229.565 222.889 229.353 222.211C229.14 221.534 229.107 220.737 229.253 219.82C229.346 219.276 229.459 218.691 229.592 218.067C229.738 217.443 229.878 216.845 230.01 216.274C230.329 215.078 230.807 214.082 231.445 213.285C232.083 212.475 232.88 211.87 233.836 211.472C234.806 211.073 235.935 210.874 237.223 210.874C238.047 210.874 238.837 210.98 239.594 211.193C240.352 211.392 241.009 211.698 241.567 212.109C242.138 212.521 242.557 213.039 242.822 213.664C243.088 214.275 243.141 214.999 242.982 215.835C242.955 215.955 242.889 216.055 242.782 216.134C242.689 216.214 242.583 216.254 242.464 216.254H239.076C238.89 216.254 238.751 216.214 238.658 216.134C238.578 216.055 238.525 215.915 238.499 215.716C238.485 215.158 238.326 214.779 238.02 214.58C237.728 214.368 237.343 214.261 236.865 214.261C236.28 214.261 235.775 214.421 235.35 214.739C234.939 215.045 234.64 215.59 234.454 216.373C234.175 217.463 233.936 218.578 233.736 219.721C233.59 220.505 233.65 221.056 233.916 221.375C234.195 221.68 234.626 221.833 235.211 221.833C235.689 221.833 236.121 221.727 236.506 221.514C236.905 221.302 237.237 220.923 237.502 220.378C237.609 220.166 237.715 220.026 237.821 219.96C237.941 219.88 238.1 219.84 238.299 219.84H241.687C241.806 219.84 241.899 219.88 241.966 219.96C242.045 220.04 242.072 220.139 242.045 220.259C241.833 221.082 241.514 221.806 241.089 222.431C240.677 223.042 240.159 223.56 239.535 223.985C238.91 224.397 238.206 224.709 237.423 224.921C236.639 225.12 235.789 225.22 234.872 225.22Z" fill="white"/>
<path d="M241.902 225.021C241.756 225.021 241.65 224.961 241.583 224.842C241.517 224.709 241.524 224.576 241.603 224.443L248.856 211.691C248.936 211.545 249.055 211.405 249.215 211.273C249.374 211.14 249.58 211.073 249.832 211.073H253.578C253.831 211.073 254.01 211.14 254.116 211.273C254.223 211.405 254.282 211.545 254.296 211.691L256.149 224.443C256.175 224.616 256.129 224.755 256.009 224.861C255.903 224.968 255.777 225.021 255.631 225.021H252.642C252.416 225.021 252.257 224.968 252.164 224.861C252.084 224.755 252.031 224.649 252.004 224.543L251.725 222.889H246.943L245.947 224.563C245.894 224.669 245.801 224.775 245.668 224.881C245.548 224.974 245.376 225.021 245.15 225.021H241.902ZM248.557 219.522H251.526L251.008 215.038L248.557 219.522Z" fill="white"/>
<path d="M257.966 225.021C257.833 225.021 257.727 224.974 257.647 224.881C257.568 224.775 257.541 224.649 257.568 224.503L260.297 211.591C260.324 211.445 260.404 211.326 260.536 211.233C260.669 211.126 260.802 211.073 260.935 211.073H266.614C268.42 211.073 269.748 211.485 270.599 212.309C271.462 213.132 271.734 214.281 271.415 215.756C271.216 216.686 270.831 217.476 270.26 218.127C269.702 218.778 269.044 219.289 268.287 219.661L269.861 224.363C269.875 224.403 269.881 224.443 269.881 224.483C269.895 224.509 269.895 224.543 269.881 224.583C269.855 224.702 269.788 224.808 269.682 224.901C269.589 224.981 269.483 225.021 269.363 225.021H265.996C265.743 225.021 265.564 224.961 265.458 224.842C265.365 224.709 265.305 224.589 265.279 224.483L264.163 220.378H262.728L261.851 224.503C261.825 224.649 261.745 224.775 261.612 224.881C261.493 224.974 261.36 225.021 261.214 225.021H257.966ZM263.425 217.091H265.318C265.783 217.091 266.155 216.964 266.434 216.712C266.726 216.446 266.912 216.121 266.992 215.736C267.072 215.337 267.025 214.999 266.853 214.72C266.693 214.441 266.374 214.301 265.896 214.301H264.003L263.425 217.091Z" fill="white"/>
<path d="M276.856 225.22C275.474 225.22 274.332 225.028 273.429 224.642C272.539 224.257 271.901 223.752 271.516 223.128C271.13 222.49 270.998 221.813 271.117 221.096C271.144 220.976 271.204 220.876 271.297 220.797C271.39 220.717 271.496 220.677 271.615 220.677H274.783C274.983 220.677 275.129 220.71 275.222 220.777C275.315 220.83 275.408 220.91 275.501 221.016C275.58 221.162 275.687 221.302 275.82 221.434C275.966 221.554 276.152 221.654 276.377 221.733C276.617 221.8 276.895 221.833 277.214 221.833C277.825 221.833 278.317 221.753 278.689 221.594C279.074 221.421 279.3 221.189 279.366 220.896C279.419 220.671 279.366 220.485 279.207 220.338C279.061 220.192 278.782 220.06 278.37 219.94C277.971 219.82 277.427 219.694 276.736 219.561C275.74 219.389 274.91 219.11 274.245 218.725C273.595 218.339 273.136 217.841 272.871 217.23C272.605 216.606 272.565 215.869 272.751 215.018C273.017 213.73 273.701 212.72 274.803 211.99C275.906 211.246 277.334 210.874 279.087 210.874C279.964 210.874 280.754 211 281.458 211.253C282.162 211.505 282.753 211.837 283.232 212.249C283.723 212.647 284.082 213.079 284.308 213.544C284.547 214.009 284.626 214.454 284.547 214.879C284.533 214.999 284.474 215.105 284.367 215.198C284.274 215.277 284.175 215.317 284.069 215.317H280.741C280.568 215.317 280.429 215.291 280.323 215.238C280.23 215.184 280.143 215.098 280.064 214.979C280.037 214.793 279.904 214.627 279.665 214.48C279.439 214.334 279.134 214.261 278.749 214.261C278.297 214.261 277.925 214.341 277.633 214.5C277.354 214.647 277.181 214.866 277.115 215.158C277.075 215.357 277.115 215.53 277.234 215.676C277.354 215.822 277.586 215.955 277.932 216.074C278.277 216.181 278.768 216.3 279.406 216.433C280.641 216.619 281.604 216.905 282.295 217.29C282.999 217.675 283.464 218.173 283.69 218.784C283.929 219.382 283.962 220.099 283.79 220.936C283.484 222.344 282.747 223.414 281.578 224.144C280.422 224.861 278.848 225.22 276.856 225.22Z" fill="white"/>
</g>
<path d="M180.2 234.774C168.915 234.774 161.138 234.512 161.011 234.507L160.939 234.505V207.921L160.958 207.9L176.764 190.089L176.796 190.087L282.269 184.991L282.255 185.081C282.245 185.143 281.294 191.252 280.337 196.057C279.378 200.875 265.471 223.793 265.331 224.024L265.309 224.047C260.72 227.101 252.38 229.551 240.519 231.329C231.037 232.75 219.293 233.748 205.615 234.295C196.421 234.662 187.564 234.774 180.201 234.774L180.2 234.774ZM161.087 234.361C162.461 234.406 183.009 235.049 205.609 234.146C227.081 233.288 254.845 230.819 265.213 223.932C265.627 223.248 279.247 200.771 280.191 196.029C281.084 191.546 281.972 185.926 282.094 185.149L176.834 190.234L161.087 207.978V234.361V234.361Z" fill="#263238"/>
<path d="M51.8561 220.907C51.8561 220.907 57.663 217.988 62.5171 226.603C67.3717 235.217 66.8994 237.225 66.8994 237.225L58.9755 236.896C56.3227 232.444 53.9796 227.021 51.8561 220.907Z" fill="#263238"/>
<path d="M375.495 190.161H361.264C361.264 190.161 363.398 196.856 368.38 199.469C373.361 202.082 379.921 200.215 380.158 200.754C380.396 201.294 375.495 190.161 375.495 190.161Z" fill="#D7504D"/>
<path opacity="0.3" d="M116.56 196.656C148.665 192.589 193.871 191.769 216.362 192.292C238.853 192.815 380.158 181.91 380.158 181.91H358.372L312.346 182.565L163.943 188.93L148.323 188.104C148.323 188.104 126.202 188.386 114.616 189.962C94.8853 192.646 60.5622 201.523 50.2856 215.562L64.099 218.118C64.099 218.118 84.4545 200.723 116.559 196.656L116.56 196.656Z" fill="white"/>
<path opacity="0.3" d="M388.389 220.981C376.25 227.039 353.311 230.342 353.311 230.342V244.363C362.952 243.025 371.525 241.356 376.663 239.303C376.663 239.303 386.809 227.806 388.389 220.981Z" fill="black"/>
<path d="M56.6006 214.455C56.6006 214.455 62.2669 215.789 63.3296 215.433C64.3922 215.077 70.147 210.364 70.147 210.364C70.147 210.364 61.9127 208.763 56.6006 214.455Z" fill="white"/>
<path d="M117.135 257.53C132.326 257.53 144.64 245.188 144.64 229.963C144.64 214.739 132.326 202.396 117.135 202.396C101.944 202.396 89.6289 214.739 89.6289 229.963C89.6289 245.188 101.944 257.53 117.135 257.53Z" fill="#263238"/>
<path opacity="0.4" d="M117.135 246.864C126.448 246.864 133.998 239.297 133.998 229.963C133.998 220.629 126.448 213.062 117.135 213.062C107.821 213.062 100.271 220.629 100.271 229.963C100.271 239.297 107.821 246.864 117.135 246.864Z" fill="white"/>
<g opacity="0.3">
<path d="M117.139 214.759H117.124C116.382 214.759 115.78 215.363 115.78 216.108V224.772C115.78 225.517 116.382 226.122 117.124 226.122H117.139C117.881 226.122 118.482 225.517 118.482 224.772V216.108C118.482 215.363 117.881 214.759 117.139 214.759Z" fill="white"/>
</g>
<g opacity="0.3">
<path d="M117.139 233.802H117.124C116.382 233.802 115.78 234.406 115.78 235.151V243.815C115.78 244.56 116.382 245.164 117.124 245.164H117.139C117.881 245.164 118.482 244.56 118.482 243.815V235.151C118.482 234.406 117.881 233.802 117.139 233.802Z" fill="white"/>
</g>
<g opacity="0.3">
<path d="M122.278 228.544C121.634 228.909 120.818 228.682 120.454 228.037C120.08 227.392 120.298 226.566 120.941 226.191L128.43 221.838L128.434 221.836C129.079 221.465 129.902 221.687 130.272 222.334L130.274 222.338C130.644 222.984 130.422 223.809 129.777 224.18L122.297 228.534L122.278 228.544H122.278Z" fill="white"/>
</g>
<g opacity="0.3">
<path d="M103.991 237.527L103.99 237.524C103.619 236.877 103.842 236.052 104.487 235.682L111.967 231.328C112.612 230.952 113.44 231.17 113.818 231.815C114.191 232.465 113.97 233.295 113.322 233.67L105.842 238.024C105.194 238.399 104.366 238.176 103.991 237.527Z" fill="white"/>
</g>
<g opacity="0.3">
<path d="M130.27 237.567C129.897 238.212 129.073 238.433 128.43 238.06L120.941 233.706C120.296 233.327 120.078 232.498 120.454 231.851C120.828 231.206 121.653 230.988 122.295 231.363L129.775 235.717L129.779 235.719C130.423 236.092 130.643 236.918 130.271 237.563L130.27 237.567Z" fill="white"/>
</g>
<g opacity="0.3">
<path d="M113.809 228.05C113.433 228.694 112.608 228.91 111.967 228.533L104.486 224.179L104.483 224.178C103.839 223.805 103.619 222.979 103.991 222.334C104.365 221.685 105.194 221.463 105.842 221.837L113.322 226.191L113.325 226.193C113.969 226.566 114.189 227.391 113.817 228.037L113.809 228.05Z" fill="white"/>
</g>
<path d="M117.135 227.688C118.388 227.688 119.403 228.706 119.403 229.961C119.403 231.216 118.388 232.234 117.135 232.234C115.883 232.234 114.868 231.216 114.868 229.961C114.868 228.706 115.883 227.688 117.135 227.688Z" fill="#263238"/>
<path opacity="0.5" d="M145.241 249.006V245.969C145.241 245.969 262.973 247.769 295.949 242.368V249.006H145.241V249.006Z" fill="black"/>
<path opacity="0.5" d="M69.6059 249.007H87.8788V246.864L66.5698 246.567C67.0807 247.11 68.7444 248.479 69.6053 249.007H69.6059Z" fill="black"/>
<path d="M176.798 190.162C176.798 190.162 294.312 185.487 312.346 182.565L314.964 177.237C314.964 177.237 288.328 161.963 249.517 162.989C210.706 164.015 176.799 190.162 176.799 190.162H176.798Z" fill="#263238"/>
<path opacity="0.3" d="M281.963 165.853L278.977 185.383L286.464 184.706L288.014 167.224L281.963 165.853Z" fill="black"/>
<path d="M285.092 166.613L282.104 185.058L282.25 185.081L285.237 166.636L285.092 166.613Z" fill="#263238"/>
<path opacity="0.3" d="M191.591 180.682L192.749 189.331L176.798 190.161L191.591 180.682Z" fill="black"/>
<path d="M188.898 183.646C188.898 183.646 179.625 185.214 180.457 191.56C181.288 197.906 193.669 194.84 193.922 194.462C193.922 194.462 193.311 186.034 188.898 183.646Z" fill="#219AF3"/>
<path d="M188.899 183.645C185.637 184.386 181.707 185.89 180.636 189.395C179.582 193.847 183.176 195.47 186.992 195.458C189.266 195.487 191.812 195.145 193.868 194.466C193.387 190.562 192.464 185.879 188.899 183.645V183.645ZM188.899 183.645C192.527 185.842 193.484 190.554 193.977 194.483C193.697 194.691 193.421 194.714 193.112 194.818C191.117 195.343 189.053 195.615 186.989 195.6C183.103 195.64 179.431 193.88 180.535 189.368C181.63 185.822 185.591 184.331 188.898 183.645H188.899Z" fill="#263238"/>
<path opacity="0.2" d="M193.921 180.682L311.928 177.322C311.928 177.322 278.847 162.812 249.169 164.528C219.49 166.244 193.921 180.682 193.921 180.682Z" fill="white"/>
<defs>
<clipPath id="clip0_1467_1226">
<rect width="131.577" height="30" fill="white" transform="translate(153 204)"/>
</clipPath>
</defs>
</svg>
